<svg width="129" height="128" viewBox="0 0 129 128" fill="none" xmlns="http://www.w3.org/2000/svg">
<path d="M96.6523 19.9006C95.8523 20.7006 95.1523 21.4006 94.4523 22.1006C90.3523 26.0006 86.3523 30.1006 82.1523 33.8006C81.0523 34.7006 80.0523 34.9006 78.7523 34.4006C75.8523 33.2006 72.9523 32.3006 69.8523 31.9006C66.3523 31.5006 62.9523 32.1006 59.5523 33.1006C57.1523 33.7006 54.8523 34.5006 52.3523 34.6006C50.0523 34.7006 48.1523 34.0006 46.6523 32.3006C44.1523 29.3006 42.3523 26.0006 43.2523 21.9006C43.9523 18.7006 45.7523 16.4006 49.1523 15.6006C52.2523 14.8006 54.9523 13.2006 57.6523 11.6006C62.8523 8.60059 68.0523 5.60059 73.1523 2.60059C74.5523 1.80059 75.9523 1.0006 77.4523 0.400598C79.8523 -0.399402 80.7523 -0.0994067 81.8523 2.20059C83.6523 5.80059 85.7523 9.2006 88.1523 12.4006C90.4523 15.4006 93.1523 18.0006 96.6523 19.9006Z" fill="#5577F6"/>
<path d="M63.5523 48.8006C68.6523 49.1006 73.3523 47.6006 77.9523 45.5006C78.2523 45.4006 78.5523 45.2006 78.8523 45.1006C81.0523 44.2006 81.0523 44.2006 81.1523 46.6006C81.4523 50.2006 82.5523 53.7006 83.5523 57.1006C84.5523 60.3006 85.6523 63.6006 86.7523 66.8006C87.0523 67.5006 86.9523 67.9006 86.3523 68.4006C78.8523 74.7006 71.1523 80.9006 62.9523 86.3006C62.5523 86.6006 62.1523 87.0006 61.5523 86.5006C56.0523 83.0006 50.8523 79.3006 46.3523 74.5006C45.5523 73.6006 45.2523 73.0006 46.0523 71.7006C48.8523 66.8006 50.9523 61.6006 52.9523 56.4006C53.7523 54.3006 54.9523 52.7006 56.4523 51.0006C58.0523 49.3006 59.6523 48.4006 61.9523 48.8006C62.4523 48.9006 63.0523 48.8006 63.5523 48.8006Z" fill="#5577F6"/>
<path d="M122.752 45.8006C124.552 48.1006 126.052 50.6006 127.952 52.7006C128.452 53.3006 128.052 53.8006 127.752 54.2006C126.252 56.2006 124.352 57.8006 122.452 59.3006C113.452 66.5006 103.752 72.8006 94.2523 79.3006C81.1523 88.3006 68.1523 97.4006 54.9523 106.101C41.6523 114.901 27.3524 121.801 11.8524 126.101C9.85235 126.601 7.95233 127.201 5.95233 127.701C3.95233 128.201 1.15233 125.701 1.55233 123.701C1.65233 123.201 2.15233 123.301 2.45233 123.201C7.85233 121.701 13.2523 119.801 18.5523 117.801C38.4523 110.201 57.2524 100.401 74.0524 87.2006C90.6524 74.1006 106.852 60.6006 122.352 46.2006C122.352 46.1006 122.552 46.0006 122.752 45.8006Z" fill="#5577F6"/>
<path d="M56.9523 35.2006C61.0523 34.1006 65.0523 32.8006 69.3523 33.3006C72.2523 33.6006 74.9523 34.3006 77.5523 35.5006C79.9523 36.6006 81.7523 36.1006 83.6523 34.4006C88.1523 30.1006 92.6523 25.8006 97.0523 21.4006C97.6523 20.8006 98.0523 20.6006 98.8523 20.9006C102.052 22.1006 104.452 24.5006 106.652 26.9006C107.152 27.4006 106.852 27.7006 106.552 28.1006C103.952 31.5006 101.352 34.9006 98.1523 37.7006C91.8523 43.3006 91.0523 50.3006 92.4523 57.9006C92.6523 59.2006 93.0523 60.4006 93.3523 61.6006C93.4523 62.0006 93.5523 62.4006 93.1523 62.7006C91.5523 64.0006 89.9523 65.4006 88.2523 66.8006C86.6523 62.4006 85.1523 58.0006 83.9523 53.6006C83.1523 50.7006 82.2523 47.7006 82.4523 44.6006C82.5523 43.5006 81.8523 43.1006 80.8523 43.1006C79.9523 43.2006 79.1523 43.5006 78.2523 43.9006C74.9523 45.3006 71.7523 46.9006 68.1523 47.2006C65.4523 47.4006 62.7523 47.2006 60.0523 47.2006C59.9523 46.9006 60.4523 46.6006 60.6523 46.2006C61.4523 44.4006 61.0523 42.7006 60.3523 41.0006C59.4523 39.0006 58.2523 37.1006 56.9523 35.2006Z" fill="#5577F6"/>
<path d="M36.9523 91.4006C41.1523 92.5006 44.8523 94.2006 48.7523 96.1006C47.6523 96.8006 46.6523 97.5006 45.6523 98.2006C37.9523 103.201 30.2523 108.401 21.7523 112.201C15.2523 115.101 8.2523 116.901 1.4523 118.801C1.0523 118.901 0.652311 119.001 0.552311 118.401C-0.0476893 115.901 -0.347683 113.401 0.652317 110.901C1.15232 109.601 1.95233 108.801 3.35233 108.301C6.75233 107.301 9.65232 105.301 12.6523 103.501C16.0523 101.401 19.4523 99.3006 22.6523 96.9006C25.1523 95.0006 27.7523 94.5006 30.7523 95.4006C31.8523 95.7006 32.8523 96.0006 33.9523 96.1006C36.8523 96.2006 38.0523 94.6006 36.9523 91.4006Z" fill="#5577F6"/>
<path d="M1.15235 122.201C1.05235 121.901 1.05234 121.601 0.95234 121.301C0.65234 120.401 0.952364 120.101 1.85236 119.801C10.4524 117.301 19.0523 115.201 27.0523 110.901C32.6523 107.801 38.1523 104.501 43.5523 100.901C55.4523 93.0006 67.5523 85.2006 78.7523 76.2006C89.4523 67.6006 99.8523 58.6006 110.252 49.7006C112.752 47.5006 115.252 45.4006 117.852 43.2006C119.152 42.1006 119.452 42.1006 120.652 43.3006C121.952 44.6006 121.952 44.6006 120.652 45.8006C107.752 57.8006 94.0524 69.0006 80.5524 80.3006C66.4524 92.0006 51.1523 101.801 34.5523 109.701C24.4523 114.501 9.05235 120.301 1.15235 122.201Z" fill="#5577F6"/>
<path d="M60.9523 87.7006C58.1523 89.6006 55.4523 91.3006 52.8523 93.3006C50.8523 94.9006 49.1523 95.1006 46.7523 93.8006C42.7523 91.6006 38.3523 90.2006 33.8523 89.2006C32.0523 88.8006 30.2523 88.1006 28.7523 87.0006C27.1523 85.8006 26.4523 84.2006 26.1523 82.3006C26.0523 81.7006 26.2523 81.1006 26.6523 80.6006C27.0523 80.1006 27.4523 79.6006 27.9523 79.2006C30.1523 77.2006 32.0523 75.0006 33.1523 72.1006C33.9523 70.0006 35.4523 68.1006 37.4523 66.8006C39.0523 65.8006 40.3523 66.0006 40.9523 67.7006C43.9523 76.1006 51.0523 80.7006 57.7523 85.6006C58.8523 86.4006 59.8523 87.0006 60.9523 87.7006Z" fill="#5577F6"/>
<path d="M109.952 30.8006C112.652 34.3006 114.852 37.9006 116.952 41.6006C117.352 42.3006 116.852 42.5006 116.452 42.8006C112.152 46.5006 107.952 50.1006 103.652 53.8006C101.952 55.2006 100.252 56.7006 98.6523 58.1006C96.7523 55.1006 96.2523 49.7006 98.3523 47.0006C102.252 41.7006 106.152 36.3006 109.952 30.8006Z" fill="#5577F6"/>
<path d="M46.3523 44.9006C47.2523 44.4006 48.0523 44.5006 48.9523 44.5006C49.7523 44.5006 50.7523 44.8006 51.2523 43.9006C51.6523 43.0006 50.7523 42.6006 50.4523 42.0006C51.5523 42.0006 52.6523 42.1006 53.7523 42.0006C55.2523 41.9006 55.6523 40.9006 54.8523 39.7006C54.0523 38.5006 52.8523 38.0006 51.5523 37.6006C50.0523 37.1006 48.4523 37.0006 46.8523 37.0006C46.3523 37.0006 45.9523 36.9006 45.6523 36.5006C44.9523 35.6006 44.3523 34.7006 42.9523 34.9006C42.5523 34.9006 42.4523 34.5006 42.3523 34.2006C42.3523 33.8006 42.4523 33.5006 42.8523 33.4006C43.4523 33.3006 44.1523 33.3006 44.6523 32.9006C45.0523 32.6006 45.1523 33.0006 45.3523 33.2006C47.7523 36.0006 50.9523 36.4006 54.3523 35.8006C55.1523 35.6006 55.5523 35.8006 56.0523 36.5006C57.1523 38.2006 58.2523 39.9006 59.0523 41.7006C60.0523 43.9006 59.8523 45.9006 58.0523 47.7006C57.0523 48.7006 56.0523 49.7006 55.0523 50.7006C53.5523 52.1006 52.4523 53.7006 51.7523 55.6006C49.9523 60.7006 47.7523 65.7006 45.2523 70.5006C44.9523 71.0006 44.6523 71.5006 44.3523 72.0006C43.4523 70.9006 43.1523 69.7006 42.6523 68.5006C41.9523 66.8006 41.1523 65.2006 38.9523 65.1006C38.3523 65.1006 38.4523 64.6006 38.4523 64.3006C38.4523 63.7006 38.9523 64.0006 39.2523 64.0006C40.6523 64.2006 41.9523 64.8006 43.2523 65.3006C43.7523 65.5006 44.3523 65.8006 44.7523 65.3006C45.2523 64.8006 44.8523 64.2006 44.5523 63.7006C43.8523 62.5006 42.9523 61.5006 41.9523 60.6006C41.5523 60.2006 41.4523 60.0006 41.9523 59.7006C42.7523 59.2006 42.9523 58.3006 43.5523 57.5006C43.8523 57.7006 44.0523 57.9006 44.3523 58.1006C44.9523 58.6006 45.7523 58.9006 46.4523 58.5006C47.3523 58.0006 47.4523 57.1006 47.3523 56.3006C47.2523 55.1006 46.5523 54.3006 45.6523 53.5006C44.9523 52.9006 44.2523 52.4006 43.5523 51.9006C43.9523 51.5006 44.4523 51.2006 44.5523 50.8006C45.1523 49.1006 46.3523 49.2006 47.7523 49.5006C48.7523 49.7006 49.7523 49.6006 50.6523 49.2006C51.9523 48.7006 52.0523 47.6006 50.9523 46.8006C49.6523 45.9006 48.1523 45.6006 46.6523 45.2006C46.8523 45.0006 46.6523 45.0006 46.3523 44.9006Z" fill="#5577F6"/>
<path d="M57.2522 6.90061C54.4522 8.80061 51.9523 10.8006 50.3523 13.5006C50.0523 14.1006 49.4522 14.2006 48.9522 14.3006C45.9522 14.9006 42.9523 15.3006 39.8523 15.7006C39.0523 15.8006 38.9522 15.3006 38.7522 14.8006C37.9522 12.7006 37.9522 10.6006 37.4522 8.40061C37.1522 7.00061 37.6523 6.60061 38.8523 6.40061C42.1523 5.90061 45.3522 4.9006 48.6522 4.7006C51.0522 4.6006 53.4522 4.80061 55.6522 5.90061C56.1522 6.20061 56.6522 6.50061 57.2522 6.90061Z" fill="#5577F6"/>
<path d="M25.3524 84.4006C26.8524 88.3006 30.1523 89.7006 33.7523 90.6006C35.4523 91.0006 35.8523 91.4006 36.0523 93.1006C36.1523 94.1006 35.7523 94.6006 34.7523 94.7006C33.7523 94.8006 32.7524 94.6006 31.8524 94.3006C27.8524 93.0006 24.3523 93.7006 20.9523 96.3006C16.4523 99.8006 11.4523 102.701 6.45233 105.501C6.05233 105.701 5.75234 106.001 5.15234 105.901C11.8523 98.6006 19.8524 92.8006 25.3524 84.4006Z" fill="#5577F6"/>
<path d="M93.3524 51.6006C93.2524 47.3006 94.5523 43.0006 98.2523 39.6006C101.552 36.4006 104.552 32.9006 107.352 29.2006C107.552 28.9006 107.652 28.1006 108.252 28.6006C108.752 29.0006 109.252 29.4006 108.652 30.3006C105.352 34.9006 102.252 39.7006 98.6523 44.0006C95.1523 48.2006 94.8523 52.6006 96.7523 57.4006C97.2523 58.7006 97.0524 59.4006 96.0524 60.2006C94.3524 61.5006 94.6523 61.5006 94.2523 59.5006C93.6523 57.2006 93.3524 54.7006 93.3524 51.6006Z" fill="#5577F6"/>
<path d="M54.0524 40.7006C52.9524 40.6006 52.0523 40.6006 51.2523 40.5006C50.6523 40.5006 50.0523 40.4006 49.4523 40.4006C48.9523 40.4006 48.6523 40.5006 48.3523 40.9006C48.0523 41.4006 48.3523 41.7006 48.6523 42.0006C48.9523 42.3006 49.2523 42.6006 49.6523 43.0006C48.5523 43.2006 47.4523 43.0006 46.4523 43.3006C45.9523 43.5006 45.4523 43.6006 45.0523 43.8006C44.5523 44.0006 44.2523 44.4006 44.3523 45.0006C44.4523 45.5006 44.8523 45.8006 45.3523 45.9006C46.6523 46.2006 48.0523 46.4006 49.2523 46.9006C49.6523 47.1006 50.0523 47.3006 50.6523 47.5006C49.6523 48.1006 48.6523 48.0006 47.7523 47.8006C45.6523 47.5006 43.6523 46.6006 41.9523 45.2006C40.8523 44.3006 40.8523 44.3006 42.1523 43.6006C42.7523 43.3006 43.3523 43.0006 43.9523 42.7006C45.0523 42.0006 45.2523 41.1006 44.5523 40.0006C43.9523 39.1006 43.2523 38.3006 42.6523 37.4006C42.3523 37.0006 42.0523 36.6006 42.6523 36.2006C43.1523 35.9006 43.7523 35.6006 44.1523 36.2006C45.1523 37.9006 46.7523 38.0006 48.4523 38.0006C49.7523 38.0006 50.9523 38.3006 52.1523 38.8006C52.7523 39.5006 53.4524 39.8006 54.0524 40.7006Z" fill="#5577F6"/>
<path d="M37.3523 62.7006C38.0523 61.7006 38.5523 60.8006 38.2523 59.3006C37.9523 57.8006 38.9523 56.6006 40.2523 55.7006C40.8523 55.3006 41.5523 55.2006 42.2523 55.8006C42.9523 56.4006 42.4523 56.9006 42.1523 57.4006C41.8523 57.9006 41.6523 58.5006 40.9523 58.7006C39.7523 59.0006 39.5523 59.7006 40.4523 60.6006C41.3523 61.5006 42.4523 62.4006 43.1523 63.6006C41.2523 63.2006 39.5523 61.9006 37.4523 62.8006C37.4523 62.8006 37.3523 62.8006 37.3523 62.7006Z" fill="#5577F6"/>
<path d="M44.7523 16.4006C42.5523 18.7006 41.5523 21.2006 41.5523 24.1006C41.5523 24.5006 41.4523 24.9006 40.9523 24.9006C40.4523 25.0006 40.4523 24.5006 40.3523 24.2006C39.8523 22.0006 39.7523 19.7006 39.7523 17.5006C39.7523 17.1006 39.9523 17.0006 40.2523 17.0006C41.6523 16.8006 43.0523 16.6006 44.7523 16.4006Z" fill="#5577F6"/>
<path d="M52.6523 12.7006C55.2523 9.10057 62.0523 5.20057 67.2523 4.40057C62.4523 7.30057 57.7523 10.1006 52.6523 12.7006Z" fill="#5577F6"/>
<path d="M40.6523 51.9006C42.8523 52.7006 44.6523 53.8006 45.9523 55.5006C46.1523 55.7006 46.2523 56.0006 46.2523 56.3006C46.3523 56.6006 46.3523 57.0006 46.0523 57.2006C45.7523 57.4006 45.4523 57.1006 45.1523 56.9006C43.5523 55.5006 41.9523 53.9006 40.6523 51.9006Z" fill="#5577F6"/>
<path d="M40.9523 26.9006C40.8523 26.5006 40.9523 26.2006 41.4523 26.2006C41.9523 26.1006 41.8523 26.5006 41.9523 26.8006C42.3523 28.2006 42.9523 29.6006 43.7523 30.8006C43.9523 31.1006 44.5524 31.6006 43.8524 32.0006C43.2524 32.3006 42.6523 32.3006 42.1523 31.6006C41.3523 30.0006 41.1523 28.4006 40.9523 26.9006Z" fill="#5577F6"/>
<path d="M37.3523 62.7006C37.4523 62.7006 37.4523 62.8006 37.4523 62.8006C37.3523 63.3006 37.1523 63.9006 37.3523 64.4006C37.6523 65.2006 37.2523 65.6006 36.6523 65.9006C36.2523 66.1006 35.9523 66.8006 35.4523 66.0006C35.1523 65.4006 34.4523 64.8006 35.3523 64.2006C36.0523 63.7006 36.5523 63.0006 37.3523 62.7006Z" fill="#5577F6"/>
<path d="M44.7523 48.3006C44.1523 49.6006 43.5523 50.5006 42.4523 50.9006C42.1523 51.0006 41.8523 51.0006 41.6523 50.7006C41.4523 50.3006 41.8523 50.2006 42.0523 50.0006C42.7523 49.4006 43.5523 48.9006 44.7523 48.3006Z" fill="#5577F6"/>
</svg>
