<?xml version="1.0" encoding="utf-8"?>
<!-- Generator: Adobe Illustrator 19.1.0, SVG Export Plug-In . SVG Version: 6.00 Build 0)  -->
<svg version="1.1" id="Layer_1" xmlns="http://www.w3.org/2000/svg" xmlns:xlink="http://www.w3.org/1999/xlink" x="0px" y="0px"
	 viewBox="0 0 792 242" style="enable-background:new 0 0 792 242;" xml:space="preserve">
<style type="text/css">
	.st0{fill:#5577F6;}
	.st1{display:none;fill:#FEFEFE;}
</style>
<g>
	<path class="st0" d="M112.9,135.7c-2.5,4.1-6.1,7.3-10.9,9.8c-4.8,2.4-10.7,3.6-17.5,3.6c-10.3,0-18.9-2.5-25.5-7.6
		c-6.7-5-10.3-12.1-10.9-21.1h23.7c0.3,3.5,1.6,6.2,3.7,8.2c2.1,2,4.8,3,8.1,3c2.9,0,5.1-0.8,6.8-2.3c1.6-1.6,2.5-3.6,2.5-6.3
		c0-2.3-0.8-4.3-2.3-5.9c-1.5-1.6-3.4-2.8-5.7-3.8c-2.3-1-5.4-2.2-9.4-3.6c-5.8-2-10.6-3.9-14.3-5.8c-3.7-1.9-6.9-4.6-9.5-8.3
		c-2.7-3.7-4-8.5-4-14.4c0-5.5,1.4-10.2,4.2-14.2c2.8-4,6.6-7.1,11.5-9.2c4.9-2.1,10.5-3.2,16.9-3.2c10.3,0,18.4,2.4,24.4,7.3
		c6,4.9,9.4,11.6,10.2,20.1H90.8c-0.4-3-1.5-5.5-3.3-7.2c-1.8-1.8-4.2-2.7-7.2-2.7c-2.6,0-4.7,0.7-6.3,2.1c-1.6,1.4-2.4,3.4-2.4,6.1
		c0,2.2,0.7,4,2.2,5.5c1.4,1.5,3.2,2.8,5.4,3.7c2.2,1,5.3,2.2,9.4,3.6c5.9,2,10.7,4,14.5,5.9c3.7,2,6.9,4.8,9.6,8.5
		c2.7,3.7,4,8.6,4,14.6C116.6,127.2,115.4,131.6,112.9,135.7z"/>
	<path class="st0" d="M195,83.1c4.9,5.6,7.4,13.2,7.4,22.9v42.2h-22.3v-39.6c0-4.9-1.3-8.7-3.8-11.4c-2.6-2.7-6-4.1-10.2-4.1
		c-4.5,0-8.1,1.4-10.8,4.3c-2.7,2.9-4,7-4,12.2v38.6H129V51.8h22.3v37c2.1-4.3,5.2-7.8,9.3-10.3c4.1-2.5,9-3.8,14.5-3.8
		C183.5,74.7,190.1,77.5,195,83.1z"/>
	<path class="st0" d="M270.5,79.1c5.7,3,10.2,7.3,13.4,13c3.3,5.6,4.9,12.2,4.9,19.8c0,7.6-1.6,14.2-4.9,19.8
		c-3.3,5.6-7.7,10-13.4,13c-5.7,3-12.1,4.5-19.4,4.5c-7.2,0-13.7-1.5-19.4-4.5c-5.7-3-10.2-7.3-13.5-13c-3.3-5.6-4.9-12.2-4.9-19.8
		c0-7.6,1.6-14.2,4.9-19.8c3.3-5.6,7.8-10,13.5-13c5.7-3,12.2-4.5,19.4-4.5C258.3,74.6,264.8,76.1,270.5,79.1z M240.4,98.5
		c-2.9,3.1-4.4,7.5-4.4,13.4c0,5.8,1.5,10.3,4.4,13.3c2.9,3,6.5,4.6,10.8,4.6c4.3,0,7.8-1.5,10.7-4.6c2.9-3,4.3-7.5,4.3-13.3
		c0-5.8-1.4-10.3-4.3-13.4c-2.9-3.1-6.4-4.6-10.7-4.6C246.9,93.9,243.3,95.4,240.4,98.5z"/>
	<path class="st0" d="M368.8,115.9h-50.4c0.3,5.5,1.6,9.4,4.2,11.8c2.5,2.4,5.7,3.6,9.6,3.6c3.3,0,6-0.8,8.2-2.5
		c2.2-1.6,3.6-3.8,4.3-6.4h23.6c-1,5.1-3,9.7-6.3,13.7c-3.2,4-7.3,7.2-12.3,9.5c-5,2.3-10.5,3.5-16.5,3.5c-7.1,0-13.4-1.5-19-4.5
		c-5.5-3-9.8-7.3-13-13c-3.1-5.6-4.7-12.2-4.7-19.8c0-7.6,1.5-14.3,4.6-19.9c3.1-5.6,7.4-9.9,13-12.9c5.6-3,11.9-4.5,19-4.5
		c7.2,0,13.6,1.5,19,4.4c5.5,3,9.7,7.1,12.7,12.4c3,5.3,4.5,11.5,4.5,18.4C369.4,111.7,369.2,113.7,368.8,115.9z M343.1,95.8
		c-2.7-2.4-5.9-3.6-9.8-3.6c-4.1,0-7.5,1.2-10.2,3.6c-2.7,2.4-4.2,6-4.6,10.7h28.4C347,101.7,345.7,98.2,343.1,95.8z"/>
	<path class="st0" d="M442.5,79.1c4.7,3,8.5,7.3,11.2,12.9s4.1,12.2,4.1,19.9c0,7.6-1.4,14.2-4.1,19.8c-2.7,5.6-6.5,10-11.2,13
		c-4.7,3-10.1,4.5-16.1,4.5c-5.6,0-10.3-1.3-14.3-3.8c-4-2.5-6.9-6-8.7-10.3v47.8H381V75.5h22.3v13.2c1.8-4.3,4.7-7.8,8.7-10.3
		c4-2.5,8.8-3.8,14.3-3.8C432.4,74.6,437.8,76.1,442.5,79.1z M407.7,98.9c-3,3.2-4.5,7.5-4.5,13c0,5.4,1.5,9.7,4.5,12.9
		c3,3.2,6.8,4.8,11.5,4.8c4.8,0,8.6-1.6,11.5-4.7c2.9-3.1,4.4-7.5,4.4-13c0-5.6-1.5-9.9-4.4-13c-2.9-3.1-6.8-4.7-11.5-4.7
		C414.5,94.1,410.7,95.7,407.7,98.9z"/>
</g>
<g>
	<path class="st0" d="M658.4,136.3v19.2h-10c-8.5,0-15.1-2.1-19.9-6.3c-4.7-4.2-7.1-11.2-7.1-20.9v-26.7h-9.8V82.7h9.8V64.9h22.3
		v17.9h14.6v18.8h-14.6v27.1c0,2.9,0.6,4.9,1.8,6c1.2,1.1,3.1,1.7,5.9,1.7H658.4z"/>
	<path class="st0" d="M743.3,82.7v72.7h-22.4v-13.2c-2.1,4.3-5.2,7.6-9.3,10.2c-4.1,2.5-8.9,3.8-14.4,3.8c-8.3,0-15-2.8-19.9-8.3
		c-4.9-5.6-7.4-13.2-7.4-22.9V82.7h22.2v39.5c0,5,1.3,8.8,3.8,11.5c2.6,2.7,6,4.1,10.4,4.1c4.5,0,8.1-1.4,10.7-4.3
		c2.6-2.9,3.9-6.9,3.9-12.2V82.7H743.3z"/>
</g>
<g>
	<path class="st1" d="M525.3,193.4c-21.4,0-42.9,0-64.3,0c-0.9,0-1.1-0.2-1.1-1c0-43,0-85.9,0-128.9c0-1,0.3-1.1,1.1-1.1
		c42.9,0,85.8,0,128.7,0c0.9,0,1.1,0.2,1.1,1.1c0,42.9,0,85.8,0,128.7c0,1-0.3,1.1-1.2,1.1C568.2,193.4,546.7,193.4,525.3,193.4z"/>
	<path class="st0" d="M558,83.9c-0.8,0.8-1.5,1.5-2.2,2.2c-4.1,3.9-8.1,8-12.3,11.7c-1.1,0.9-2.1,1.1-3.4,0.6
		c-2.9-1.2-5.8-2.1-8.9-2.5c-3.5-0.4-6.9,0.2-10.3,1.2c-2.4,0.6-4.7,1.4-7.2,1.5c-2.3,0.1-4.2-0.6-5.7-2.3c-2.5-3-4.3-6.3-3.4-10.4
		c0.7-3.2,2.5-5.5,5.9-6.3c3.1-0.8,5.8-2.4,8.5-4c5.2-3,10.4-6,15.5-9c1.4-0.8,2.8-1.6,4.3-2.2c2.4-0.8,3.3-0.5,4.4,1.8
		c1.8,3.6,3.9,7,6.3,10.2C551.8,79.4,554.5,82,558,83.9z"/>
	<path class="st0" d="M524.9,112.8c5.1,0.3,9.8-1.2,14.4-3.3c0.3-0.1,0.6-0.3,0.9-0.4c2.2-0.9,2.2-0.9,2.3,1.5
		c0.3,3.6,1.4,7.1,2.4,10.5c1,3.2,2.1,6.5,3.2,9.7c0.3,0.7,0.2,1.1-0.4,1.6c-7.5,6.3-15.2,12.5-23.4,17.9c-0.4,0.3-0.8,0.7-1.4,0.2
		c-5.5-3.5-10.7-7.2-15.2-12c-0.8-0.9-1.1-1.5-0.3-2.8c2.8-4.9,4.9-10.1,6.9-15.3c0.8-2.1,2-3.7,3.5-5.4c1.6-1.7,3.2-2.6,5.5-2.2
		C523.8,112.9,524.4,112.8,524.9,112.8z"/>
	<path class="st0" d="M584.1,109.8c1.8,2.3,3.3,4.8,5.2,6.9c0.5,0.6,0.1,1.1-0.2,1.5c-1.5,2-3.4,3.6-5.3,5.1
		c-9,7.2-18.7,13.5-28.2,20c-13.1,9-26.1,18.1-39.3,26.8c-13.3,8.8-27.6,15.7-43.1,20c-2,0.5-3.9,1.1-5.9,1.6c-2,0.5-4.8-2-4.4-4
		c0.1-0.5,0.6-0.4,0.9-0.5c5.4-1.5,10.8-3.4,16.1-5.4c19.9-7.6,38.7-17.4,55.5-30.6c16.6-13.1,32.8-26.6,48.3-41
		C583.7,110.1,583.9,110,584.1,109.8z"/>
	<path class="st0" d="M518.3,99.2c4.1-1.1,8.1-2.4,12.4-1.9c2.9,0.3,5.6,1,8.2,2.2c2.4,1.1,4.2,0.6,6.1-1.1c4.5-4.3,9-8.6,13.4-13
		c0.6-0.6,1-0.8,1.8-0.5c3.2,1.2,5.6,3.6,7.8,6c0.5,0.5,0.2,0.8-0.1,1.2c-2.6,3.4-5.2,6.8-8.4,9.6c-6.3,5.6-7.1,12.6-5.7,20.2
		c0.2,1.3,0.6,2.5,0.9,3.7c0.1,0.4,0.2,0.8-0.2,1.1c-1.6,1.3-3.2,2.7-4.9,4.1c-1.6-4.4-3.1-8.8-4.3-13.2c-0.8-2.9-1.7-5.9-1.5-9
		c0.1-1.1-0.6-1.5-1.6-1.5c-0.9,0.1-1.7,0.4-2.6,0.8c-3.3,1.4-6.5,3-10.1,3.3c-2.7,0.2-5.4,0-8.1,0c-0.1-0.3,0.4-0.6,0.6-1
		c0.8-1.8,0.4-3.5-0.3-5.2C520.8,103,519.6,101.1,518.3,99.2z"/>
	<path class="st0" d="M498.3,155.4c4.2,1.1,7.9,2.8,11.8,4.7c-1.1,0.7-2.1,1.4-3.1,2.1c-7.7,5-15.4,10.2-23.9,14
		c-6.5,2.9-13.5,4.7-20.3,6.6c-0.4,0.1-0.8,0.2-0.9-0.4c-0.6-2.5-0.9-5,0.1-7.5c0.5-1.3,1.3-2.1,2.7-2.6c3.4-1,6.3-3,9.3-4.8
		c3.4-2.1,6.8-4.2,10-6.6c2.5-1.9,5.1-2.4,8.1-1.5c1.1,0.3,2.1,0.6,3.2,0.7C498.2,160.2,499.4,158.6,498.3,155.4z"/>
	<path class="st0" d="M462.5,186.2c-0.1-0.3-0.1-0.6-0.2-0.9c-0.3-0.9,0-1.2,0.9-1.5c8.6-2.5,17.2-4.6,25.2-8.9
		c5.6-3.1,11.1-6.4,16.5-10c11.9-7.9,24-15.7,35.2-24.7c10.7-8.6,21.1-17.6,31.5-26.5c2.5-2.2,5-4.3,7.6-6.5
		c1.3-1.1,1.6-1.1,2.8,0.1c1.3,1.3,1.3,1.3,0,2.5c-12.9,12-26.6,23.2-40.1,34.5c-14.1,11.7-29.4,21.5-46,29.4
		C485.8,178.5,470.4,184.3,462.5,186.2z"/>
	<path class="st0" d="M522.3,151.7c-2.8,1.9-5.5,3.6-8.1,5.6c-2,1.6-3.7,1.8-6.1,0.5c-4-2.2-8.4-3.6-12.9-4.6
		c-1.8-0.4-3.6-1.1-5.1-2.2c-1.6-1.2-2.3-2.8-2.6-4.7c-0.1-0.6,0.1-1.2,0.5-1.7c0.4-0.5,0.8-1,1.3-1.4c2.2-2,4.1-4.2,5.2-7.1
		c0.8-2.1,2.3-4,4.3-5.3c1.6-1,2.9-0.8,3.5,0.9c3,8.4,10.1,13,16.8,17.9C520.2,150.4,521.2,151,522.3,151.7z"/>
	<path class="st0" d="M571.3,94.8c2.7,3.5,4.9,7.1,7,10.8c0.4,0.7-0.1,0.9-0.5,1.2c-4.3,3.7-8.5,7.3-12.8,11c-1.7,1.4-3.4,2.9-5,4.3
		c-1.9-3-2.4-8.4-0.3-11.1C563.6,105.7,567.5,100.3,571.3,94.8z"/>
	<path class="st0" d="M507.7,108.9c0.9-0.5,1.7-0.4,2.6-0.4c0.8,0,1.8,0.3,2.3-0.6c0.4-0.9-0.5-1.3-0.8-1.9c1.1,0,2.2,0.1,3.3,0
		c1.5-0.1,1.9-1.1,1.1-2.3c-0.8-1.2-2-1.7-3.3-2.1c-1.5-0.5-3.1-0.6-4.7-0.6c-0.5,0-0.9-0.1-1.2-0.5c-0.7-0.9-1.3-1.8-2.7-1.6
		c-0.4,0-0.5-0.4-0.6-0.7c0-0.4,0.1-0.7,0.5-0.8c0.6-0.1,1.3-0.1,1.8-0.5c0.4-0.3,0.5,0.1,0.7,0.3c2.4,2.8,5.6,3.2,9,2.6
		c0.8-0.2,1.2,0,1.7,0.7c1.1,1.7,2.2,3.4,3,5.2c1,2.2,0.8,4.2-1,6c-1,1-2,2-3,3c-1.5,1.4-2.6,3-3.3,4.9c-1.8,5.1-4,10.1-6.5,14.9
		c-0.3,0.5-0.6,1-0.9,1.5c-0.9-1.1-1.2-2.3-1.7-3.5c-0.7-1.7-1.5-3.3-3.7-3.4c-0.6,0-0.5-0.5-0.5-0.8c0-0.6,0.5-0.3,0.8-0.3
		c1.4,0.2,2.7,0.8,4,1.3c0.5,0.2,1.1,0.5,1.5,0c0.5-0.5,0.1-1.1-0.2-1.6c-0.7-1.2-1.6-2.2-2.6-3.1c-0.4-0.4-0.5-0.6,0-0.9
		c0.8-0.5,1-1.4,1.6-2.2c0.3,0.2,0.5,0.4,0.8,0.6c0.6,0.5,1.4,0.8,2.1,0.4c0.9-0.5,1-1.4,0.9-2.2c-0.1-1.2-0.8-2-1.7-2.8
		c-0.7-0.6-1.4-1.1-2.1-1.6c0.4-0.4,0.9-0.7,1-1.1c0.6-1.7,1.8-1.6,3.2-1.3c1,0.2,2,0.1,2.9-0.3c1.3-0.5,1.4-1.6,0.3-2.4
		c-1.3-0.9-2.8-1.2-4.3-1.6C508.2,109,508,109,507.7,108.9z"/>
	<path class="st0" d="M518.6,70.9c-2.8,1.9-5.3,3.9-6.9,6.6c-0.3,0.6-0.9,0.7-1.4,0.8c-3,0.6-6,1-9.1,1.4c-0.8,0.1-0.9-0.4-1.1-0.9
		c-0.8-2.1-0.8-4.2-1.3-6.4c-0.3-1.4,0.2-1.8,1.4-2c3.3-0.5,6.5-1.5,9.8-1.7c2.4-0.1,4.8,0.1,7,1.2C517.5,70.2,518,70.5,518.6,70.9z
		"/>
	<path class="st0" d="M486.7,148.4c1.5,3.9,4.8,5.3,8.4,6.2c1.7,0.4,2.1,0.8,2.3,2.5c0.1,1-0.3,1.5-1.3,1.6c-1,0.1-2-0.1-2.9-0.4
		c-4-1.3-7.5-0.6-10.9,2c-4.5,3.5-9.5,6.4-14.5,9.2c-0.4,0.2-0.7,0.5-1.3,0.4C473.2,162.6,481.2,156.8,486.7,148.4z"/>
	<path class="st0" d="M554.7,115.6c-0.1-4.3,1.2-8.6,4.9-12c3.3-3.2,6.3-6.7,9.1-10.4c0.2-0.3,0.3-1.1,0.9-0.6
		c0.5,0.4,1,0.8,0.4,1.7c-3.3,4.6-6.4,9.4-10,13.7c-3.5,4.2-3.8,8.6-1.9,13.4c0.5,1.3,0.3,2-0.7,2.8c-1.7,1.3-1.4,1.3-1.8-0.7
		C555,121.2,554.7,118.7,554.7,115.6z"/>
	<path class="st0" d="M515.4,104.7c-1.1-0.1-2-0.1-2.8-0.2c-0.6,0-1.2-0.1-1.8-0.1c-0.5,0-0.8,0.1-1.1,0.5c-0.3,0.5,0,0.8,0.3,1.1
		c0.3,0.3,0.6,0.6,1,1c-1.1,0.2-2.2,0-3.2,0.3c-0.5,0.2-1,0.3-1.4,0.5c-0.5,0.2-0.8,0.6-0.7,1.2c0.1,0.5,0.5,0.8,1,0.9
		c1.3,0.3,2.7,0.5,3.9,1c0.4,0.2,0.8,0.4,1.4,0.6c-1,0.6-2,0.5-2.9,0.3c-2.1-0.3-4.1-1.2-5.8-2.6c-1.1-0.9-1.1-0.9,0.2-1.6
		c0.6-0.3,1.2-0.6,1.8-0.9c1.1-0.7,1.3-1.6,0.6-2.7c-0.6-0.9-1.3-1.7-1.9-2.6c-0.3-0.4-0.6-0.8,0-1.2c0.5-0.3,1.1-0.6,1.5,0
		c1,1.7,2.6,1.8,4.3,1.8c1.3,0,2.5,0.3,3.7,0.8C514.1,103.5,514.8,103.8,515.4,104.7z"/>
	<path class="st0" d="M498.7,126.7c0.7-1,1.2-1.9,0.9-3.4c-0.3-1.5,0.7-2.7,2-3.6c0.6-0.4,1.3-0.5,2,0.1c0.7,0.6,0.2,1.1-0.1,1.6
		c-0.3,0.5-0.5,1.1-1.2,1.3c-1.2,0.3-1.4,1-0.5,1.9c0.9,0.9,2,1.8,2.7,3c-1.9-0.4-3.6-1.7-5.7-0.8
		C498.8,126.8,498.7,126.8,498.7,126.7z"/>
	<path class="st0" d="M506.1,80.4c-2.2,2.3-3.2,4.8-3.2,7.7c0,0.4-0.1,0.8-0.6,0.8c-0.5,0.1-0.5-0.4-0.6-0.7
		c-0.5-2.2-0.6-4.5-0.6-6.7c0-0.4,0.2-0.5,0.5-0.5C503,80.8,504.4,80.6,506.1,80.4z"/>
	<path class="st0" d="M514,76.7c2.6-3.6,9.4-7.5,14.6-8.3C523.8,71.3,519.1,74.1,514,76.7z"/>
	<path class="st0" d="M502,115.9c2.2,0.8,4,1.9,5.3,3.6c0.2,0.2,0.3,0.5,0.3,0.8c0.1,0.3,0.1,0.7-0.2,0.9c-0.3,0.2-0.6-0.1-0.9-0.3
		C504.9,119.5,503.3,117.9,502,115.9z"/>
	<path class="st0" d="M502.3,90.9c-0.1-0.4,0-0.7,0.5-0.7c0.5-0.1,0.4,0.3,0.5,0.6c0.4,1.4,1,2.8,1.8,4c0.2,0.3,0.8,0.8,0.1,1.2
		c-0.6,0.3-1.2,0.3-1.7-0.4C502.7,94,502.5,92.4,502.3,90.9z"/>
	<path class="st0" d="M498.7,126.7c0.1,0,0.1,0.1,0.1,0.1c-0.1,0.5-0.3,1.1-0.1,1.6c0.3,0.8-0.1,1.2-0.7,1.5
		c-0.4,0.2-0.7,0.9-1.2,0.1c-0.3-0.6-1-1.2-0.1-1.8C497.4,127.7,497.9,127,498.7,126.7z"/>
	<path class="st0" d="M506.1,112.3c-0.6,1.3-1.2,2.2-2.3,2.6c-0.3,0.1-0.6,0.1-0.8-0.2c-0.2-0.4,0.2-0.5,0.4-0.7
		C504.1,113.4,504.9,112.9,506.1,112.3z"/>
</g>
<g>
</g>
<g>
</g>
<g>
</g>
<g>
</g>
<g>
</g>
<g>
</g>
</svg>
